<?xml version="1.0" encoding="UTF-8" standalone="no"?><svg xmlns="http://www.w3.org/2000/svg" xmlns:xlink="http://www.w3.org/1999/xlink" contentStyleType="text/css" height="231px" preserveAspectRatio="none" style="width:619px;height:231px;background:#FFFFFF;" version="1.1" viewBox="0 0 619 231" width="619px" zoomAndPan="magnify"><defs/><g><!--MD5=[d39d75d20503768f828654fc47e3a2bb]
cluster CLI--><g id="cluster_CLI"><path d="M489.5,6 L514.5,6 A3.75,3.75 0 0 1 517,8.5 L524,28.2969 L576.5,28.2969 A2.5,2.5 0 0 1 579,30.7969 L579,100.5 A2.5,2.5 0 0 1 576.5,103 L489.5,103 A2.5,2.5 0 0 1 487,100.5 L487,8.5 A2.5,2.5 0 0 1 489.5,6 " style="stroke:#000000;stroke-width:1.5;fill:none;"/><line style="stroke:#000000;stroke-width:1.5;fill:none;" x1="487" x2="524" y1="28.2969" y2="28.2969"/><text fill="#000000" font-family="sans-serif" font-size="14" font-weight="bold" lengthAdjust="spacing" textLength="24" x="491" y="20.9951">CLI</text></g><!--MD5=[21ae74856a153c9ea96b9ce525e5365f]
cluster Sketches--><g id="cluster_Sketches"><path d="M8.5,127 L82.5,127 A3.75,3.75 0 0 1 85,129.5 L92,149.2969 L340.5,149.2969 A2.5,2.5 0 0 1 343,151.7969 L343,221.5 A2.5,2.5 0 0 1 340.5,224 L8.5,224 A2.5,2.5 0 0 1 6,221.5 L6,129.5 A2.5,2.5 0 0 1 8.5,127 " style="stroke:#000000;stroke-width:1.5;fill:none;"/><line style="stroke:#000000;stroke-width:1.5;fill:none;" x1="6" x2="92" y1="149.2969" y2="149.2969"/><text fill="#000000" font-family="sans-serif" font-size="14" font-weight="bold" lengthAdjust="spacing" textLength="73" x="10" y="141.9951">Sketches</text></g><!--MD5=[2a7201a0373696f604edc5d42c09c7a8]
cluster Software Architecture (SWA)--><g id="cluster_Software Architecture (SWA)"><path d="M369.5,127 L599.5,127 A3.75,3.75 0 0 1 602,129.5 L609,149.2969 L609.5,149.2969 A2.5,2.5 0 0 1 612,151.7969 L612,221.5 A2.5,2.5 0 0 1 609.5,224 L369.5,224 A2.5,2.5 0 0 1 367,221.5 L367,129.5 A2.5,2.5 0 0 1 369.5,127 " style="stroke:#000000;stroke-width:1.5;fill:none;"/><line style="stroke:#000000;stroke-width:1.5;fill:none;" x1="367" x2="609" y1="149.2969" y2="149.2969"/><text fill="#000000" font-family="sans-serif" font-size="14" font-weight="bold" lengthAdjust="spacing" textLength="229" x="371" y="141.9951">Software Architecture (SWA)</text></g><!--MD5=[bc128d887d5caa3b91e3a47f4f4e1cae]
cluster Linking--><g id="cluster_Linking"><path d="M292.5,6 L349.5,6 A3.75,3.75 0 0 1 352,8.5 L359,28.2969 L460.5,28.2969 A2.5,2.5 0 0 1 463,30.7969 L463,100.5 A2.5,2.5 0 0 1 460.5,103 L292.5,103 A2.5,2.5 0 0 1 290,100.5 L290,8.5 A2.5,2.5 0 0 1 292.5,6 " style="stroke:#000000;stroke-width:1.5;fill:none;"/><line style="stroke:#000000;stroke-width:1.5;fill:none;" x1="290" x2="359" y1="28.2969" y2="28.2969"/><text fill="#000000" font-family="sans-serif" font-size="14" font-weight="bold" lengthAdjust="spacing" textLength="56" x="294" y="20.9951">Linking</text></g><!--MD5=[c251b62818238b6f79269adc5bf7d1e2]
entity cli--><g id="elem_cli"><rect fill="#F1F1F1" height="46.2969" rx="2.5" ry="2.5" style="stroke:#181818;stroke-width:0.5;" width="60" x="503" y="41"/><rect fill="#F1F1F1" height="10" style="stroke:#181818;stroke-width:0.5;" width="15" x="543" y="46"/><rect fill="#F1F1F1" height="2" style="stroke:#181818;stroke-width:0.5;" width="4" x="541" y="48"/><rect fill="#F1F1F1" height="2" style="stroke:#181818;stroke-width:0.5;" width="4" x="541" y="52"/><text fill="#000000" font-family="sans-serif" font-size="14" lengthAdjust="spacing" textLength="20" x="518" y="73.9951">CLI</text></g><!--MD5=[3a91bd5c5c0e202100c82455f39f51b4]
entity smodel--><g id="elem_smodel"><rect fill="#F1F1F1" height="46.2969" rx="2.5" ry="2.5" style="stroke:#181818;stroke-width:0.5;" width="82" x="22" y="162"/><rect fill="#F1F1F1" height="10" style="stroke:#181818;stroke-width:0.5;" width="15" x="84" y="167"/><rect fill="#F1F1F1" height="2" style="stroke:#181818;stroke-width:0.5;" width="4" x="82" y="169"/><rect fill="#F1F1F1" height="2" style="stroke:#181818;stroke-width:0.5;" width="4" x="82" y="173"/><text fill="#000000" font-family="sans-serif" font-size="14" lengthAdjust="spacing" textLength="42" x="37" y="194.9951">Model</text></g><!--MD5=[1fa81e3309bd67c6f6bf1f3fe2118150]
entity coco--><g id="elem_coco"><rect fill="#F1F1F1" height="46.2969" rx="2.5" ry="2.5" style="stroke:#181818;stroke-width:0.5;" width="82" x="192" y="162"/><rect fill="#F1F1F1" height="10" style="stroke:#181818;stroke-width:0.5;" width="15" x="254" y="167"/><rect fill="#F1F1F1" height="2" style="stroke:#181818;stroke-width:0.5;" width="4" x="252" y="169"/><rect fill="#F1F1F1" height="2" style="stroke:#181818;stroke-width:0.5;" width="4" x="252" y="173"/><text fill="#000000" font-family="sans-serif" font-size="14" lengthAdjust="spacing" textLength="42" x="207" y="194.9951">COCO</text></g><!--MD5=[6e3613e32beee7422e6d43c39f9fbf55]
entity imodel--><g id="elem_imodel"><ellipse cx="148" cy="185" fill="#F1F1F1" rx="8" ry="8" style="stroke:#181818;stroke-width:0.5;"/><text fill="#000000" font-family="sans-serif" font-size="14" lengthAdjust="spacing" textLength="43" x="126.5" y="214.9951">model</text></g><!--MD5=[a4d7e900dfe4b9cf380ec1cf3176fac0]
entity idiagram--><g id="elem_idiagram"><ellipse cx="318" cy="185" fill="#F1F1F1" rx="8" ry="8" style="stroke:#181818;stroke-width:0.5;"/><text fill="#000000" font-family="sans-serif" font-size="14" lengthAdjust="spacing" textLength="55" x="290.5" y="214.9951">diagram</text></g><!--MD5=[93dbce09eb56c10e396eb32f81645e3d]
entity pcm--><g id="elem_pcm"><rect fill="#F1F1F1" height="46.2969" rx="2.5" ry="2.5" style="stroke:#181818;stroke-width:0.5;" width="71" x="383.5" y="162"/><rect fill="#F1F1F1" height="10" style="stroke:#181818;stroke-width:0.5;" width="15" x="434.5" y="167"/><rect fill="#F1F1F1" height="2" style="stroke:#181818;stroke-width:0.5;" width="4" x="432.5" y="169"/><rect fill="#F1F1F1" height="2" style="stroke:#181818;stroke-width:0.5;" width="4" x="432.5" y="173"/><text fill="#000000" font-family="sans-serif" font-size="14" lengthAdjust="spacing" textLength="31" x="398.5" y="194.9951">PCM</text></g><!--MD5=[184ecec087d87cde4f0c6112cfe009de]
entity iarch--><g id="elem_iarch"><ellipse cx="499" cy="185" fill="#F1F1F1" rx="8" ry="8" style="stroke:#181818;stroke-width:0.5;"/><text fill="#000000" font-family="sans-serif" font-size="14" lengthAdjust="spacing" textLength="84" x="457" y="214.9951">Architecture</text></g><!--MD5=[8e607a5f65f6841fdefde757988ae339]
entity linking--><g id="elem_linking"><rect fill="#F1F1F1" height="46.2969" rx="2.5" ry="2.5" style="stroke:#181818;stroke-width:0.5;" width="88" x="306" y="41"/><rect fill="#F1F1F1" height="10" style="stroke:#181818;stroke-width:0.5;" width="15" x="374" y="46"/><rect fill="#F1F1F1" height="2" style="stroke:#181818;stroke-width:0.5;" width="4" x="372" y="48"/><rect fill="#F1F1F1" height="2" style="stroke:#181818;stroke-width:0.5;" width="4" x="372" y="52"/><text fill="#000000" font-family="sans-serif" font-size="14" lengthAdjust="spacing" textLength="48" x="321" y="73.9951">Linking</text></g><!--MD5=[5971cfdaf6fba54f93a21af605507a48]
entity ilink--><g id="elem_ilink"><ellipse cx="438" cy="64" fill="#F1F1F1" rx="8" ry="8" style="stroke:#181818;stroke-width:0.5;"/><text fill="#000000" font-family="sans-serif" font-size="14" lengthAdjust="spacing" textLength="41" x="417.5" y="93.9951">Linker</text></g><!--MD5=[6eb6d0e5655d0dd1bd015e35eae55aff]
entity ardoco--><g id="elem_ardoco"><rect fill="#F1F1F1" height="46.2969" rx="2.5" ry="2.5" style="stroke:#181818;stroke-width:0.5;" width="93" x="124.5" y="41"/><rect fill="#F1F1F1" height="10" style="stroke:#181818;stroke-width:0.5;" width="15" x="197.5" y="46"/><rect fill="#F1F1F1" height="2" style="stroke:#181818;stroke-width:0.5;" width="4" x="195.5" y="48"/><rect fill="#F1F1F1" height="2" style="stroke:#181818;stroke-width:0.5;" width="4" x="195.5" y="52"/><text fill="#000000" font-family="sans-serif" font-size="14" lengthAdjust="spacing" textLength="53" x="139.5" y="73.9951">ArDoCo</text></g><!--MD5=[174e88fc3720eebadda9ee9091ccd1ac]
entity docu--><g id="elem_docu"><ellipse cx="262" cy="64" fill="#F1F1F1" rx="8" ry="8" style="stroke:#181818;stroke-width:0.5;"/><text fill="#000000" font-family="sans-serif" font-size="14" lengthAdjust="spacing" textLength="36" x="244" y="93.9951">Docs</text></g><!--MD5=[335eeedfde8d698564578bc581a12d1f]
link coco to idiagram--><g id="link_coco_idiagram"><path d="M274.17,185 C285.7,185 297.23,185 308.76,185 " fill="none" id="coco-idiagram" style="stroke:#181818;stroke-width:1.0;"/></g><!--MD5=[d639e7eba31b3c5192d3f8b54cc0d545]
reverse link imodel to coco--><g id="link_imodel_coco"><path d="M167.3,185 C175.5,185 183.7,185 191.9,185 " fill="none" id="imodel-backto-coco" style="stroke:#181818;stroke-width:1.0;"/><path d="M160.3782,193.4572 A9,9 0 0 0 160.3782 176.5428" fill="none" style="stroke:#181818;stroke-width:1.5;"/></g><!--MD5=[ae066cd39800423492e33609eaee90fa]
link smodel to imodel--><g id="link_smodel_imodel"><path d="M104.17,185 C115.7,185 127.23,185 138.76,185 " fill="none" id="smodel-imodel" style="stroke:#181818;stroke-width:1.0;"/></g><!--MD5=[7569702771227b6d6e0ca58bab96bbec]
link pcm to iarch--><g id="link_pcm_iarch"><path d="M454.62,185 C466.41,185 478.2,185 489.99,185 " fill="none" id="pcm-iarch" style="stroke:#181818;stroke-width:1.0;"/></g><!--MD5=[3e0cf733c582b0b74b6000963e2ab35e]
link ardoco to docu--><g id="link_ardoco_docu"><path d="M217.57,64 C229.37,64 241.17,64 252.97,64 " fill="none" id="ardoco-docu" style="stroke:#181818;stroke-width:1.0;"/></g><!--MD5=[5346fb7aa9e98bef4f999ebb5d664c97]
reverse link ilink to cli--><g id="link_ilink_cli"><path d="M457.7,64 C472.75,64 487.81,64 502.86,64 " fill="none" id="ilink-backto-cli" style="stroke:#181818;stroke-width:1.0;"/><path d="M450.3582,72.4572 A9,9 0 0 0 450.3582 55.5428" fill="none" style="stroke:#181818;stroke-width:1.5;"/></g><!--MD5=[cdbd9d96959b3f0d65c495ca4f931ef7]
link linking to ilink--><g id="link_linking_ilink"><path d="M394.34,64 C405.83,64 417.31,64 428.79,64 " fill="none" id="linking-ilink" style="stroke:#181818;stroke-width:1.0;"/></g><!--MD5=[28afc827781f10ce7609a3b831dcb634]
link linking to iarch--><g id="link_linking_iarch"><path d="M373.87,87.17 C384.73,96.02 398.21,105.41 412,111 C436.93,121.11 450.66,102.62 472,119 C486.52,130.15 493.29,150.51 496.41,165.48 " fill="none" id="linking-to-iarch" style="stroke:#181818;stroke-width:1.0;"/><path d="M505.9673,171.1803 A9,9 0 0 0 489.2949 174.0315" fill="none" style="stroke:#181818;stroke-width:1.5;"/></g><!--MD5=[1e3da7242dd6bfe5690b4c20747452f8]
link linking to idiagram--><g id="link_linking_idiagram"><path d="M344.06,87.1 C337.93,109.89 328.49,144.99 322.81,166.1 " fill="none" id="linking-to-idiagram" style="stroke:#181818;stroke-width:1.0;"/><path d="M329.1267,175.2063 A9,9 0 0 0 312.7938 170.809" fill="none" style="stroke:#181818;stroke-width:1.5;"/></g><!--MD5=[2c46ba668a1721177fe3d88969ead4d1]
reverse link docu to linking--><g id="link_docu_linking"><path d="M281.51,64 C289.58,64 297.65,64 305.72,64 " fill="none" id="docu-backto-linking" style="stroke:#181818;stroke-width:1.0;"/><path d="M274.3582,72.4572 A9,9 0 0 0 274.3582 55.5428" fill="none" style="stroke:#181818;stroke-width:1.5;"/></g><!--MD5=[805f6036d491794c1728b925536d73b7]
@startuml
 package "CLI" {
     component [CLI] as cli
 }

 package "Sketches" {
     [Model] as smodel
     [COCO] as coco

     interface model as imodel
     interface diagram as idiagram

     coco -right- idiagram
     coco -left-( imodel
     smodel -right- imodel
 }

 package "Software Architecture (SWA)" {
     [PCM] as pcm
     interface Architecture as iarch
     pcm -right- iarch
 }

 [ArDoCo] as ardoco
 interface Docs as docu
 ardoco -right- docu

 package "Linking" {
     [Linking] as linking
     interface Linker as ilink
     cli -left-( ilink

     linking -right- ilink
     linking -down-( iarch
     linking -down-( idiagram
     linking -left-( docu
 }
@enduml

PlantUML version 1.2022.4(Sat Apr 09 13:29:17 UTC 2022)
(GPL source distribution)
Java Runtime: OpenJDK Runtime Environment
JVM: OpenJDK 64-Bit Server VM
Default Encoding: UTF-8
Language: en
Country: null
--></g></svg>